<svg width="24px" height="24px" viewBox="0 0 24 24" fill="none" xmlns="http://www.w3.org/2000/svg">
    <g id="arrow-left">
        <path d="M5 12H19M5 12L11 6M5 12L11 18" stroke="#fff" stroke-width="2" stroke-linecap="round"
              stroke-linejoin="round"/>
    </g>
    <g id="arrow-up">
        <path fill="#ffffff" d="M12 6l8 8H4z"/>
    </g>
    <g id="location">
        <g clip-path="url(#clip0_1_1564)">
            <path d="M1.5 3.75L6.75 1.5L11.25 3.75L15.9772 1.72425C16.0343 1.69979 16.0966 1.68988 16.1584 1.69541C16.2202 1.70094 16.2797 1.72173 16.3316 1.75593C16.3834 1.79013 16.4259 1.83666 16.4553 1.89135C16.4847 1.94603 16.5001 2.00716 16.5 2.06925V14.25L11.25 16.5L6.75 14.25L2.02275 16.2758C1.96569 16.3002 1.90344 16.3101 1.8416 16.3046C1.77976 16.2991 1.72026 16.2783 1.66844 16.2441C1.61662 16.2099 1.5741 16.1633 1.54471 16.1087C1.51531 16.054 1.49994 15.9928 1.5 15.9307V3.75ZM11.25 14.823V5.382L11.2013 5.403L6.75 3.177V12.618L6.79875 12.597L11.25 14.823Z"
                  fill="white"/>
        </g>
        <defs>
            <clipPath id="clip0_1_1564">
                <rect width="18" height="18" fill="#2B2B2B"/>
            </clipPath>
        </defs>
    </g>
    <g id="mail">
        <g clip-path="url(#clip0_1_1567)">
            <path d="M2.25 2.25H15.75C15.9489 2.25 16.1397 2.32902 16.2803 2.46967C16.421 2.61032 16.5 2.80109 16.5 3V15C16.5 15.1989 16.421 15.3897 16.2803 15.5303C16.1397 15.671 15.9489 15.75 15.75 15.75H2.25C2.05109 15.75 1.86032 15.671 1.71967 15.5303C1.57902 15.3897 1.5 15.1989 1.5 15V3C1.5 2.80109 1.57902 2.61032 1.71967 2.46967C1.86032 2.32902 2.05109 2.25 2.25 2.25ZM9.045 8.76225L4.236 4.6785L3.26475 5.8215L9.05475 10.7378L14.7405 5.81775L13.7595 4.683L9.04575 8.76225H9.045Z"
                  fill="white"/>
        </g>
        <defs>
            <clipPath id="clip0_1_1567">
                <rect width="18" height="18" fill="#2B2B2B"/>
            </clipPath>
        </defs>
    </g>
    <g id="mobile">
        <g clip-path="url(#clip0_1_1570)">
            <path d="M4.5 1.5H13.5C13.6989 1.5 13.8897 1.57902 14.0303 1.71967C14.171 1.86032 14.25 2.05109 14.25 2.25V15.75C14.25 15.9489 14.171 16.1397 14.0303 16.2803C13.8897 16.421 13.6989 16.5 13.5 16.5H4.5C4.30109 16.5 4.11032 16.421 3.96967 16.2803C3.82902 16.1397 3.75 15.9489 3.75 15.75V2.25C3.75 2.05109 3.82902 1.86032 3.96967 1.71967C4.11032 1.57902 4.30109 1.5 4.5 1.5ZM9 12.75C8.80109 12.75 8.61032 12.829 8.46967 12.9697C8.32902 13.1103 8.25 13.3011 8.25 13.5C8.25 13.6989 8.32902 13.8897 8.46967 14.0303C8.61032 14.171 8.80109 14.25 9 14.25C9.19891 14.25 9.38968 14.171 9.53033 14.0303C9.67098 13.8897 9.75 13.6989 9.75 13.5C9.75 13.3011 9.67098 13.1103 9.53033 12.9697C9.38968 12.829 9.19891 12.75 9 12.75Z"
                  fill="white"/>
        </g>
        <defs>
            <clipPath id="clip0_1_1570">
                <rect width="18" height="18" fill="#2B2B2B"/>
            </clipPath>
        </defs>
    </g>
    <g id="telegram">
        <circle cx="16" cy="16" r="14" fill="url(#paint0_linear_87_7225)"/>
        <path d="M22.9866 10.2088C23.1112 9.40332 22.3454 8.76755 21.6292 9.082L7.36482 15.3448C6.85123 15.5703 6.8888 16.3483 7.42147 16.5179L10.3631 17.4547C10.9246 17.6335 11.5325 17.541 12.0228 17.2023L18.655 12.6203C18.855 12.4821 19.073 12.7665 18.9021 12.9426L14.1281 17.8646C13.665 18.3421 13.7569 19.1512 14.314 19.5005L19.659 22.8523C20.2585 23.2282 21.0297 22.8506 21.1418 22.1261L22.9866 10.2088Z"
              fill="white"/>
        <defs>
            <linearGradient id="paint0_linear_87_7225" x1="16" y1="2" x2="16" y2="30" gradientUnits="userSpaceOnUse">
                <stop stop-color="#37BBFE"/>
                <stop offset="1" stop-color="#007DBB"/>
            </linearGradient>
        </defs>
    </g>
    <g id="instagram">
        <g clip-path="url(#clip0_1_1462)">
            <path d="M7.00001 1.1665C8.58492 1.1665 8.78267 1.17234 9.40451 1.2015C10.0258 1.23067 10.4487 1.32809 10.8208 1.47275C11.2058 1.62092 11.5302 1.82159 11.8545 2.14534C12.1511 2.43694 12.3806 2.78968 12.5271 3.179C12.6712 3.55059 12.7692 3.97409 12.7983 4.59534C12.8258 5.21717 12.8333 5.41492 12.8333 6.99984C12.8333 8.58475 12.8275 8.7825 12.7983 9.40434C12.7692 10.0256 12.6712 10.4485 12.5271 10.8207C12.3811 11.2102 12.1515 11.563 11.8545 11.8543C11.5628 12.1509 11.2101 12.3804 10.8208 12.5269C10.4493 12.671 10.0258 12.769 9.40451 12.7982C8.78267 12.8256 8.58492 12.8332 7.00001 12.8332C5.41509 12.8332 5.21734 12.8273 4.59551 12.7982C3.97426 12.769 3.55134 12.671 3.17917 12.5269C2.7897 12.3808 2.4369 12.1512 2.14551 11.8543C1.84883 11.5628 1.6193 11.21 1.47292 10.8207C1.32826 10.4491 1.23084 10.0256 1.20167 9.40434C1.17426 8.7825 1.16667 8.58475 1.16667 6.99984C1.16667 5.41492 1.17251 5.21717 1.20167 4.59534C1.23084 3.9735 1.32826 3.55117 1.47292 3.179C1.61889 2.78944 1.84847 2.43661 2.14551 2.14534C2.43698 1.84856 2.78976 1.61901 3.17917 1.47275C3.55134 1.32809 3.97367 1.23067 4.59551 1.2015C5.21734 1.17409 5.41509 1.1665 7.00001 1.1665ZM7.00001 4.08317C6.22646 4.08317 5.48459 4.39046 4.93761 4.93744C4.39063 5.48442 4.08334 6.22629 4.08334 6.99984C4.08334 7.77339 4.39063 8.51525 4.93761 9.06223C5.48459 9.60921 6.22646 9.9165 7.00001 9.9165C7.77355 9.9165 8.51542 9.60921 9.0624 9.06223C9.60938 8.51525 9.91667 7.77339 9.91667 6.99984C9.91667 6.22629 9.60938 5.48442 9.0624 4.93744C8.51542 4.39046 7.77355 4.08317 7.00001 4.08317ZM10.7917 3.93734C10.7917 3.74395 10.7149 3.55848 10.5781 3.42174C10.4414 3.28499 10.2559 3.20817 10.0625 3.20817C9.86912 3.20817 9.68365 3.28499 9.54691 3.42174C9.41016 3.55848 9.33334 3.74395 9.33334 3.93734C9.33334 4.13072 9.41016 4.31619 9.54691 4.45294C9.68365 4.58968 9.86912 4.6665 10.0625 4.6665C10.2559 4.6665 10.4414 4.58968 10.5781 4.45294C10.7149 4.31619 10.7917 4.13072 10.7917 3.93734ZM7.00001 5.24984C7.46413 5.24984 7.90925 5.43421 8.23744 5.7624C8.56563 6.09059 8.75001 6.53571 8.75001 6.99984C8.75001 7.46397 8.56563 7.90909 8.23744 8.23727C7.90925 8.56546 7.46413 8.74984 7.00001 8.74984C6.53588 8.74984 6.09076 8.56546 5.76257 8.23727C5.43438 7.90909 5.25001 7.46397 5.25001 6.99984C5.25001 6.53571 5.43438 6.09059 5.76257 5.7624C6.09076 5.43421 6.53588 5.24984 7.00001 5.24984Z"
                  fill="#1B1B1B"/>
        </g>
        <defs>
            <clipPath id="clip0_1_1462">
                <rect width="14" height="14" fill="white"/>
            </clipPath>
        </defs>
    </g>
    <g id="linkedIn">
        <g clip-path="url(#clip0_24194_7)">
            <path d="M4.04842 2.91676C4.04827 3.22618 3.9252 3.52287 3.7063 3.74155C3.4874 3.96023 3.19059 4.083 2.88117 4.08285C2.57175 4.08269 2.27507 3.95963 2.05638 3.74072C1.8377 3.52182 1.71493 3.22501 1.71509 2.9156C1.71524 2.60618 1.83831 2.30949 2.05721 2.09081C2.27611 1.87213 2.57292 1.74936 2.88234 1.74951C3.19176 1.74967 3.48844 1.87273 3.70713 2.09163C3.92581 2.31053 4.04858 2.60734 4.04842 2.91676ZM4.08342 4.94676H1.75009V12.2501H4.08342V4.94676ZM7.77009 4.94676H5.44842V12.2501H7.74675V8.4176C7.74675 6.2826 10.5293 6.08426 10.5293 8.4176V12.2501H12.8334V7.62426C12.8334 4.0251 8.71509 4.15926 7.74675 5.92676L7.77009 4.94676Z"
                  fill="#2B2B2B"/>
        </g>
        <defs>
            <clipPath id="clip0_24194_7">
                <rect width="14" height="14" fill="white"/>
            </clipPath>
        </defs>
    </g>
    <g id="close">
        <g clip-path="url(#clip0_1_1486)">
            <path d="M12 10.5862L16.95 5.63623L18.364 7.05023L13.414 12.0002L18.364 16.9502L16.95 18.3642L12 13.4142L7.04999 18.3642L5.63599 16.9502L10.586 12.0002L5.63599 7.05023L7.04999 5.63623L12 10.5862Z"
            />
        </g>
        <defs>
            <clipPath id="clip0_1_1486">
                <rect width="24" height="24" />
            </clipPath>
        </defs>
    </g>
    <g id="download">
        <g clip-path="url(#clip0_1_226)">
            <path d="M2.33329 12.9523H11.6666V8.28564H12.8333V13.619C12.8333 13.7958 12.7718 13.9654 12.6624 14.0904C12.553 14.2154 12.4047 14.2856 12.25 14.2856H1.74996C1.59525 14.2856 1.44688 14.2154 1.33748 14.0904C1.22808 13.9654 1.16663 13.7958 1.16663 13.619V8.28564H2.33329V12.9523ZM8.16663 6.28564H11.0833L6.99996 10.9523L2.91663 6.28564H5.83329V2.28564H8.16663V6.28564Z"
                  fill="#2B2B2B"/>
        </g>
        <defs>
            <clipPath id="clip0_1_226">
                <rect width="14" height="16" fill="white" transform="translate(0 0.285645)"/>
            </clipPath>
        </defs>
    </g>
</svg>